<?xml version="1.0" encoding="UTF-8"?>
<svg xmlns="http://www.w3.org/2000/svg" width="1600" height="900" viewBox="0 0 1600 900">
  <defs>
    <linearGradient id="navy" x1="0" y1="0" x2="0" y2="1">
      <stop offset="0" stop-color="#243552"/><stop offset="1" stop-color="#152238"/>
    </linearGradient>
    <linearGradient id="mint" x1="0" y1="0" x2="1" y2="1">
      <stop offset="0" stop-color="#BDEBDA"/><stop offset="1" stop-color="#78C9B3"/>
    </linearGradient>
    <filter id="shadow" x="-20%" y="-20%" width="140%" height="140%">
      <feDropShadow dx="0" dy="8" stdDeviation="10" flood-color="#07101E" flood-opacity=".45"/>
    </filter>
    <style>
      .brass{stroke:#C7A35A;stroke-width:4;fill:none}.ivory{fill:#FFF5DF}.navy{fill:url(#navy)}
      .focus{stroke:#AEEBD7;stroke-width:6;fill:none}.coral{stroke:#F28C7F;stroke-width:5;fill:none}
    </style>
  </defs>
  <g id="panel" transform="translate(70 70)" filter="url(#shadow)">
    <path class="navy" d="M18 0h494l18 18v284l-18 18H18L0 302V18z"/>
    <path class="brass" d="M25 10h480l15 15v270l-15 15H25l-15-15V25z"/>
    <path stroke="#AEEBD7" stroke-width="2" opacity=".5" d="M36 28h444M36 292h444"/>
    <circle cx="25" cy="25" r="5" fill="#C7A35A"/><circle cx="505" cy="25" r="5" fill="#C7A35A"/>
  </g>
  <g id="button-primary" transform="translate(70 430)" filter="url(#shadow)">
    <path fill="url(#mint)" d="M14 0h292l14 14v58l-14 14H14L0 72V14z"/>
    <path stroke="#FFF5DF" stroke-width="3" fill="none" d="M20 7h280l12 12v48l-12 12H20L8 67V19z"/>
  </g>
  <g id="button-secondary" transform="translate(70 545)">
    <path class="navy" d="M14 0h292l14 14v58l-14 14H14L0 72V14z"/>
    <path class="brass" d="M20 7h280l12 12v48l-12 12H20L8 67V19z"/>
  </g>
  <g id="button-focus" transform="translate(60 660)">
    <path class="focus" d="M20 0h312l20 20v66l-20 20H20L0 86V20z"/>
    <circle cx="12" cy="12" r="5" fill="#FFF5DF"/><circle cx="340" cy="12" r="5" fill="#FFF5DF"/>
  </g>
  <g id="world-card" transform="translate(650 70)" filter="url(#shadow)">
    <path fill="#FFF5DF" d="M22 0h350l22 22v406l-22 22H22L0 428V22z"/>
    <path class="brass" d="M30 12h334l18 18v390l-18 18H30l-18-18V30z"/>
    <path fill="#1B2A43" opacity=".1" d="M30 30h334v240H30z"/>
    <path fill="#AEEBD7" opacity=".5" d="M30 284h334v4H30z"/>
  </g>
  <g id="nodes" transform="translate(650 570)">
    <circle cx="48" cy="48" r="38" fill="#1B2A43" stroke="#C7A35A" stroke-width="5"/>
    <circle cx="158" cy="48" r="38" fill="#AEEBD7" stroke="#FFF5DF" stroke-width="5"/>
    <circle cx="268" cy="48" r="38" fill="#4B5362" stroke="#87909C" stroke-width="5"/>
    <path d="M86 48h34M196 48h34" stroke="#C7A35A" stroke-width="5" stroke-linecap="round"/>
    <path d="M148 48l8 8 16-20" stroke="#18324B" stroke-width="6" fill="none" stroke-linecap="round"/>
    <rect x="256" y="38" width="24" height="22" rx="4" fill="#C7CBD0"/><path d="M261 38v-8a7 7 0 0114 0v8" stroke="#C7CBD0" stroke-width="5" fill="none"/>
  </g>
  <g id="keycaps" transform="translate(650 720)">
    <rect x="0" y="0" width="72" height="72" rx="14" fill="#FFF5DF" stroke="#C7A35A" stroke-width="5"/>
    <path d="M24 44l12-16 12 16" fill="none" stroke="#1B2A43" stroke-width="7" stroke-linecap="round" stroke-linejoin="round"/>
    <rect x="94" y="0" width="72" height="72" rx="14" fill="#FFF5DF" stroke="#C7A35A" stroke-width="5"/>
    <path d="M142 24l-16 12 16 12" fill="none" stroke="#1B2A43" stroke-width="7" stroke-linecap="round" stroke-linejoin="round"/>
    <rect x="188" y="0" width="72" height="72" rx="14" fill="#FFF5DF" stroke="#C7A35A" stroke-width="5"/>
    <path d="M212 24l16 12-16 12" fill="none" stroke="#1B2A43" stroke-width="7" stroke-linecap="round" stroke-linejoin="round"/>
  </g>
  <g id="channels" transform="translate(1140 90)">
    <circle cx="70" cy="70" r="44" fill="#AEEBD7" stroke="#FFF5DF" stroke-width="6"/>
    <path d="M70 165l50 86H20z" fill="#F4C56E" stroke="#FFF5DF" stroke-width="6"/>
    <path d="M70 330l17 35 39 6-28 27 7 39-35-18-35 18 7-39-28-27 39-6z" fill="#D7B5FF" stroke="#FFF5DF" stroke-width="6"/>
    <path d="M70 500l58 58-58 58-58-58z" fill="#F28C7F" stroke="#FFF5DF" stroke-width="6"/>
  </g>
  <g id="danger-node" transform="translate(1340 620)">
    <circle cx="80" cy="80" r="62" fill="#6B214D" stroke="#F28C7F" stroke-width="8"/>
    <circle cx="80" cy="80" r="49" fill="none" stroke="#F28C7F" stroke-width="3"/>
    <path d="M52 52l56 56M108 52l-56 56" stroke="#FFF5DF" stroke-width="11" stroke-linecap="round"/>
  </g>
</svg>
